<svg xmlns="http://www.w3.org/2000/svg" width="22" height="22" viewBox="0 0 22 22"><defs><style>.a{fill:#fff;}</style></defs><g transform="translate(-180 -197)"><path class="a" d="M8.379,15.813a7.444,7.444,0,0,1,6.7-7.4V.645A.645.645,0,0,0,14.438,0H.645A.645.645,0,0,0,0,.645V19.938a.645.645,0,0,0,.645.645h9.471A7.4,7.4,0,0,1,8.379,15.813ZM2.793,6.875V3.438a.645.645,0,0,1,.645-.645h8.25a.645.645,0,0,1,.645.645V6.875a.645.645,0,0,1-.645.645H3.438A.645.645,0,0,1,2.793,6.875Zm1.676,10.27H3.781a.645.645,0,0,1,0-1.289h.687a.645.645,0,1,1,0,1.289Zm0-3.438H3.781a.645.645,0,1,1,0-1.289h.687a.645.645,0,1,1,0,1.289Zm0-3.438H3.781a.645.645,0,1,1,0-1.289h.687a.645.645,0,1,1,0,1.289Zm3.438,0H7.219a.645.645,0,1,1,0-1.289h.688a.645.645,0,1,1,0,1.289Z" transform="translate(180 197)"/><path class="a" d="M230.962,225a6.166,6.166,0,0,0,.182,12.329A6.166,6.166,0,1,0,230.962,225Zm.828,8.932v.135a.645.645,0,0,1-1.289,0v-.062a2.336,2.336,0,0,1-.911-.387.645.645,0,1,1,.706-1.079,1.142,1.142,0,0,0,.845.219.612.612,0,0,0,.612-.52.43.43,0,0,0-.323-.514,5.334,5.334,0,0,1-1.473-.711,1.615,1.615,0,0,1,.543-2.7v-.093a.645.645,0,0,1,1.289,0v.036a1.7,1.7,0,0,1,.749.43.645.645,0,0,1-.919.9.65.65,0,0,0-.664-.071.358.358,0,0,0-.228.283.252.252,0,0,0,.025.2,4.433,4.433,0,0,0,1.107.51A1.811,1.811,0,0,1,231.79,233.935Z" transform="translate(-35.332 -18.332)"/></g></svg>