<svg xmlns="http://www.w3.org/2000/svg" width="22.023" height="22.023" viewBox="0 0 22.023 22.023"><defs><style>.a{fill:#fff;}</style></defs><path class="a" d="M2.581,0A2.581,2.581,0,0,0,0,2.581V21.11a.489.489,0,0,0,.834.346.754.754,0,0,1,1,0l.378.378a.645.645,0,0,0,.913,0l.378-.378a.645.645,0,0,1,.913,0l.378.378a.645.645,0,0,0,.913,0l.378-.378a.645.645,0,0,1,.913,0l.378.378a.645.645,0,0,0,.913,0l.378-.378a.645.645,0,0,1,.913,0,.489.489,0,0,0,.834-.346V1.936A3.2,3.2,0,0,1,11.071,0ZM5.893,7.828H4.6a1.936,1.936,0,0,1,0-3.871V3.312a.645.645,0,0,1,1.29,0v.645A1.938,1.938,0,0,1,7.828,5.893a.645.645,0,0,1-1.29,0,.646.646,0,0,0-.645-.645H4.6a.645.645,0,0,0,0,1.29h1.29a1.936,1.936,0,1,1,0,3.871v.645a.645.645,0,0,1-1.29,0v-.645A1.938,1.938,0,0,1,2.667,8.474a.645.645,0,0,1,1.29,0,.646.646,0,0,0,.645.645h1.29a.645.645,0,1,0,0-1.29Zm1.936,9.033H2.667a.645.645,0,1,1,0-1.29H7.828a.645.645,0,1,1,0,1.29Zm0-2.581H2.667a.645.645,0,0,1,0-1.29H7.828a.645.645,0,1,1,0,1.29Z"/><path class="a" d="M394.581,165.689A2.583,2.583,0,0,1,392,163.108v-3.6a.645.645,0,0,1,1.1-.456l.189.189.834-.834a.645.645,0,0,1,.912,0l.834.834.189-.189a.645.645,0,0,1,1.1.456v3.6A2.583,2.583,0,0,1,394.581,165.689Z" transform="translate(-375.139 -151.408)"/><path class="a" d="M275.871,11.7V1.936a1.936,1.936,0,1,0-3.871,0V14.28h4.878A3.842,3.842,0,0,1,275.871,11.7Z" transform="translate(-260.3)"/></svg>