<svg xmlns="http://www.w3.org/2000/svg" width="22" height="19.073" viewBox="0 0 22 19.073"><defs><style>.a{fill:#fff;}</style></defs><g transform="translate(0 -63.12)"><path class="a" d="M255.578,75.6l-.792-2.154a.645.645,0,0,0-.646-.421l-1.066.069-.5-1a.645.645,0,0,0-.619-.357l-1.117.072-3.52-2.032a4.3,4.3,0,0,0-3.214-5.117,5.589,5.589,0,0,1,1.011,7.187l.347.6a4.266,4.266,0,0,0,.567-.438l8.059,4.653a.644.644,0,0,0,.608.02l.56-.277a.645.645,0,0,0,.319-.8Z" transform="translate(-233.618 -1.471)"/><path class="a" d="M188.16,80.016l-.957-.473.072-1.117a.644.644,0,0,0-.358-.619l-1-.5-2.032-3.52a4.3,4.3,0,0,0-1.855-7,5.59,5.59,0,0,1-.291,8.436l4.566,7.909a.645.645,0,0,0,.517.321l.624.04a.645.645,0,0,0,.677-.533l.391-2.262A.644.644,0,0,0,188.16,80.016Z" transform="translate(-173.926 -3.514)"/><path class="a" d="M8.594,67.369A4.3,4.3,0,0,0,4.941,63.12v1.885h.2a.657.657,0,0,1,.662.613.645.645,0,0,1-.644.676h-1.7a.657.657,0,0,1-.662-.613.645.645,0,0,1,.644-.676h.215V63.12a4.3,4.3,0,0,0-.645,8.348V81.2a.645.645,0,0,0,.287.536l.52.347a.645.645,0,0,0,.853-.124L6.137,80.2a.644.644,0,0,0,.041-.77l-.592-.889.621-.932a.645.645,0,0,0,0-.715l-.621-.932V71.468A4.3,4.3,0,0,0,8.594,67.369Z"/></g></svg>