<svg xmlns="http://www.w3.org/2000/svg" width="17.409" height="17.078" viewBox="0 0 17.409 17.078"><defs><style>.a{fill:#fff;}</style></defs><g transform="translate(-31 -2.73)"><g transform="translate(34.712 2.73)"><path class="a" d="M95.992,0a4.99,4.99,0,0,0-4.058,7.9l3.676,5.736a.454.454,0,0,0,.764,0l3.692-5.756A4.992,4.992,0,0,0,95.992,0Zm0,7.262a2.269,2.269,0,1,1,2.269-2.269A2.272,2.272,0,0,1,95.992,7.262Z" transform="translate(-91)"/></g><g transform="translate(31 13.335)"><path class="a" d="M44.241,344.7l-2.922,4.569a1.919,1.919,0,0,1-3.23,0L35.163,344.7c-2.575.6-4.163,1.686-4.163,2.99,0,2.262,4.485,3.482,8.7,3.482s8.7-1.22,8.7-3.482C48.409,346.381,46.82,345.29,44.241,344.7Z" transform="translate(-31 -344.695)"/></g></g></svg>