<svg xmlns="http://www.w3.org/2000/svg" width="17.409" height="17.409" viewBox="0 0 17.409 17.409"><defs><style>.a{fill:#fff;}</style></defs><circle class="a" cx="1.429" cy="1.429" r="1.429" transform="translate(7.431 0)"/><circle class="a" cx="1.429" cy="1.429" r="1.429" transform="translate(2.287 9.146)"/><path class="a" d="M13.825,99.217a3.578,3.578,0,0,0-2.726,1.26L9.217,98.971V95.12h3.072V93.584a3.584,3.584,0,1,0-7.169,0V95.12H8.193v3.85L6.31,100.477A3.583,3.583,0,0,0,0,102.8v1.536H7.169V102.8a3.564,3.564,0,0,0-.308-1.453L8.7,99.873l1.844,1.475a3.564,3.564,0,0,0-.308,1.453v1.536h7.169V102.8a3.588,3.588,0,0,0-3.584-3.584Z" transform="translate(0 -86.928)"/><ellipse class="a" cx="1.715" cy="1.429" rx="1.715" ry="1.429" transform="translate(12.004 9.146)"/></svg>