<svg xmlns="http://www.w3.org/2000/svg" width="17.212" height="17.362" viewBox="0 0 17.212 17.362"><defs><style>.a{fill:#fff;}</style></defs><circle class="a" cx="3.931" cy="3.931" r="3.931" transform="translate(2.621)"/><path class="a" d="M8.707,18.643a1.892,1.892,0,0,1,.153-2.114,1.892,1.892,0,0,1-.153-2.114l.611-1.057a1.893,1.893,0,0,1,1.635-.944,1.922,1.922,0,0,1,.273.02,1.96,1.96,0,0,1,.088-.179A3.56,3.56,0,0,0,10,12H3.586A3.59,3.59,0,0,0,0,15.586v2.642a.566.566,0,0,0,.566.566H8.793Z" transform="translate(0 -2.942)"/><path class="a" d="M19.618,17.128a2.743,2.743,0,0,0,.035-.354,2.869,2.869,0,0,0-.035-.354l.68-.515a.378.378,0,0,0,.1-.49l-.611-1.057a.378.378,0,0,0-.473-.159l-.783.33a2.8,2.8,0,0,0-.618-.368l-.1-.831A.378.378,0,0,0,17.434,13H16.213a.377.377,0,0,0-.374.331l-.1.831a2.816,2.816,0,0,0-.618.368l-.783-.33a.377.377,0,0,0-.473.159l-.611,1.057a.378.378,0,0,0,.1.49l.68.515a2.743,2.743,0,0,0-.035.354,2.869,2.869,0,0,0,.035.354l-.68.515a.378.378,0,0,0-.1.49l.611,1.058a.378.378,0,0,0,.473.159l.783-.331a2.8,2.8,0,0,0,.618.368l.1.831a.377.377,0,0,0,.374.331h1.221a.377.377,0,0,0,.374-.331l.1-.831a2.816,2.816,0,0,0,.618-.368l.783.33a.377.377,0,0,0,.473-.159l.611-1.058a.378.378,0,0,0-.1-.49Zm-2.8,1.156a1.51,1.51,0,1,1,1.51-1.51A1.509,1.509,0,0,1,16.823,18.284Z" transform="translate(-3.236 -3.187)"/></svg>