<svg xmlns="http://www.w3.org/2000/svg" width="22" height="22" viewBox="0 0 22 22"><defs><style>.a{fill:#fff;}</style></defs><path class="a" d="M21.932,9.778a.716.716,0,0,0-.707-.542,2.429,2.429,0,0,1-1.663-4.227.611.611,0,0,0,.067-.83,10.89,10.89,0,0,0-1.743-1.76.613.613,0,0,0-.836.068,2.535,2.535,0,0,1-2.744.616A2.443,2.443,0,0,1,12.822.715a.61.61,0,0,0-.54-.643A10.977,10.977,0,0,0,9.807.066.612.612,0,0,0,9.262.7,2.448,2.448,0,0,1,7.756,3.042a2.542,2.542,0,0,1-2.723-.62.613.613,0,0,0-.83-.07A10.935,10.935,0,0,0,2.423,4.112a.612.612,0,0,0,.066.836A2.438,2.438,0,0,1,3.1,7.693,2.543,2.543,0,0,1,.711,9.179a.6.6,0,0,0-.636.54,11.027,11.027,0,0,0,0,2.5.728.728,0,0,0,.721.541,2.413,2.413,0,0,1,2.264,1.507,2.447,2.447,0,0,1-.615,2.72.611.611,0,0,0-.067.829,10.928,10.928,0,0,0,1.74,1.761.612.612,0,0,0,.837-.066A2.532,2.532,0,0,1,7.693,18.9a2.44,2.44,0,0,1,1.489,2.387.611.611,0,0,0,.54.643,10.953,10.953,0,0,0,2.475.007.612.612,0,0,0,.544-.63,2.445,2.445,0,0,1,1.505-2.346,2.539,2.539,0,0,1,2.724.62.614.614,0,0,0,.83.069,10.949,10.949,0,0,0,1.779-1.759.611.611,0,0,0-.066-.836,2.437,2.437,0,0,1-.616-2.744,2.462,2.462,0,0,1,2.25-1.491l.136,0a.612.612,0,0,0,.644-.54A10.979,10.979,0,0,0,21.932,9.778ZM11,17.341a6.341,6.341,0,1,1,5.445-3.09l-2.777-2.777A3.89,3.89,0,0,0,9.064,6.205a.44.44,0,0,0-.3.307.43.43,0,0,0,.122.42s1.371,1.381,1.83,1.84a.284.284,0,0,1,.041.2l0,.03a8.767,8.767,0,0,1-.209,1.342l-.029.028-.03.031a8.642,8.642,0,0,1-1.363.212v0l-.023.006H9.072a.293.293,0,0,1-.211-.089c-.477-.477-1.795-1.785-1.795-1.785a.448.448,0,0,0-.32-.143.435.435,0,0,0-.41.331,3.89,3.89,0,0,0,5.271,4.6l2.807,2.807A6.31,6.31,0,0,1,11,17.341Z" transform="translate(-0.002 0.001)"/></svg>