<svg xmlns="http://www.w3.org/2000/svg" width="15.441" height="20.588" viewBox="0 0 15.441 20.588"><defs><style>.a{fill:#fff;}</style></defs><g transform="translate(-64)"><g transform="translate(67.86)"><path class="a" d="M167.077,1.287h-1.4a1.931,1.931,0,0,0-3.64,0h-1.4A.644.644,0,0,0,160,1.93V4.5a.644.644,0,0,0,.643.643h6.434a.644.644,0,0,0,.643-.643V1.93A.644.644,0,0,0,167.077,1.287Z" transform="translate(-160)"/></g><g transform="translate(64 2.574)"><path class="a" d="M78.154,64H76.868v1.93a1.933,1.933,0,0,1-1.93,1.93H68.5a1.933,1.933,0,0,1-1.93-1.93V64H65.287A1.289,1.289,0,0,0,64,65.287V80.728a1.273,1.273,0,0,0,1.287,1.287H78.154a1.273,1.273,0,0,0,1.287-1.287V65.287A1.273,1.273,0,0,0,78.154,64ZM71.533,75.393l-2.574,2.574a.646.646,0,0,1-.911,0L66.761,76.68a.643.643,0,0,1,.91-.91l.833.831,2.118-2.118a.644.644,0,0,1,.911.91Zm0-5.147-2.574,2.574a.646.646,0,0,1-.911,0l-1.287-1.287a.643.643,0,0,1,.91-.91l.833.831,2.118-2.118a.644.644,0,0,1,.911.91Zm4.692,6.622H73.651a.643.643,0,1,1,0-1.287h2.574a.643.643,0,0,1,0,1.287Zm0-5.147H73.651a.643.643,0,0,1,0-1.287h2.574a.643.643,0,0,1,0,1.287Z" transform="translate(-64 -64)"/></g></g></svg>